<?xml version="1.0" encoding="UTF-8"?> <svg xmlns="http://www.w3.org/2000/svg" width="194.88" height="70.25" viewBox="0 0 194.88 70.25"><g><g id="a"></g><g id="b"><g id="c"><g><g><polygon points="37.81 39.88 15.02 .25 0 0 6.86 44.38 25.73 59.74 25.76 59.77 37.83 39.9 37.81 39.88" fill="#7564a0"></polygon><line x1="49.9" y1="59.78" x2="49.89" y2="59.77" fill="#7162ab"></line><polygon points="60.63 .25 37.84 39.88 37.83 39.9 49.89 59.77 49.93 59.74 68.8 44.38 75.66 0 60.63 .25" fill="#7c9ac0"></polygon><line x1="25.76" y1="59.77" x2="25.76" y2="59.78" fill="#7491ca"></line><polygon points="25.76 59.78 30.26 63.69 37.83 70.25 45.4 63.69 49.89 59.78 37.83 39.92 25.76 59.78" fill="#575195"></polygon><polygon points="48.11 .55 37.78 20.92 27.44 .55 48.11 .55" fill="#575195"></polygon></g><g><path d="M145.32,20.86c9.62,0,17.42,7.32,17.42,17.42s-7.8,17.43-17.42,17.43-17.38-7.33-17.38-17.43,7.75-17.42,17.38-17.42Zm0,26.9c5.46,0,9.05-3.88,9.05-9.48s-3.59-9.48-9.05-9.48-9,3.83-9,9.48,3.59,9.48,9,9.48Z" fill="#575195"></path><path d="M185.97,54.9l-6.65-10.91h-3.97v10.91h-8.04V21.39h12.49c8.43,0,13.5,4.41,13.5,11.3,0,4.55-2.2,7.99-6.13,9.81l7.71,12.4h-8.9Zm-10.63-18.43h5.55c2.87,0,4.02-1.96,4.02-3.78s-1.15-3.78-4.02-3.78h-5.55v7.56Z" fill="#575195"></path><polyline points="108.26 55.66 84.75 14.93 85.81 14.92 97.16 14.94 108.2 36.8 119.25 14.94 130.65 14.94 131.71 14.96 108.2 55.69" fill="#575195"></polyline></g></g></g></g></g></svg> 